<svg width="24" height="24" viewBox="0 0 24 24" fill="none" xmlns="http://www.w3.org/2000/svg">
<path d="M19.5792 3.3492C19.2619 3.17233 18.9129 3.05986 18.5522 3.01821C18.1915 2.97655 17.8262 3.00654 17.4771 3.10645C17.128 3.20636 16.8019 3.37423 16.5176 3.60047C16.2333 3.82671 15.9963 4.10687 15.8202 4.42494L10.6888 13.6761L7.75209 10.734C7.49712 10.4696 7.19213 10.2586 6.85491 10.1135C6.51769 9.96839 6.155 9.89201 5.788 9.88881C5.421 9.88562 5.05704 9.95568 4.71736 10.0949C4.37767 10.2341 4.06907 10.4397 3.80955 10.6997C3.55003 10.9597 3.3448 11.2689 3.20582 11.6092C3.06685 11.9495 2.99692 12.3141 3.0001 12.6817C3.00329 13.0494 3.07954 13.4127 3.2244 13.7506C3.36926 14.0884 3.57982 14.3939 3.84381 14.6494L9.37178 20.1873C9.89417 20.712 10.599 21 11.3259 21L11.7087 20.9723C12.1324 20.9129 12.5365 20.7559 12.8893 20.5135C13.242 20.2711 13.5338 19.9499 13.7416 19.5754L20.6516 7.115C20.828 6.79719 20.9402 6.44769 20.9818 6.08644C21.0234 5.72519 20.9935 5.35927 20.8939 5.00958C20.7944 4.65989 20.627 4.33327 20.4014 4.04838C20.1758 3.76349 19.8964 3.52591 19.5792 3.3492Z" fill="#0A499C"/>
</svg>
